<svg width="30" height="30" viewBox="0 0 30 30" fill="none" xmlns="http://www.w3.org/2000/svg" className="hover:text-white">
<g clip-path="url(#clip0_288_421)">
<path d="M15.0003 1.6665C12.3632 1.6665 9.78538 2.44849 7.59273 3.91358C5.40007 5.37866 3.69111 7.46104 2.68194 9.89739C1.67277 12.3337 1.40872 15.0146 1.92319 17.601C2.43766 20.1875 3.70754 22.5632 5.57224 24.4279C7.43694 26.2926 9.81271 27.5625 12.3991 28.077C14.9855 28.5914 17.6664 28.3274 20.1028 27.3182C22.5391 26.3091 24.6215 24.6001 26.0866 22.4074C27.5517 20.2148 28.3337 17.6369 28.3337 14.9998C28.3337 11.4636 26.9289 8.07223 24.4284 5.57175C21.9279 3.07126 18.5366 1.6665 15.0003 1.6665ZM15.0003 26.6665C12.6929 26.6665 10.4373 25.9823 8.51868 24.7003C6.60011 23.4184 5.10476 21.5963 4.22174 19.4645C3.33871 17.3327 3.10768 14.9869 3.55784 12.7238C4.008 10.4607 5.11914 8.38187 6.75075 6.75026C8.38236 5.11865 10.4612 4.0075 12.7243 3.55734C14.9874 3.10718 17.3332 3.33822 19.465 4.22124C21.5968 5.10426 23.4189 6.59961 24.7008 8.51818C25.9828 10.4368 26.667 12.6924 26.667 14.9998C26.667 18.094 25.4378 21.0615 23.2499 23.2494C21.062 25.4373 18.0945 26.6665 15.0003 26.6665Z" fill="currentColor"/>
<path d="M15.7663 15.3333V8.95833C15.7663 8.73732 15.6785 8.52536 15.5222 8.36908C15.3659 8.2128 15.154 8.125 14.9329 8.125C14.7119 8.125 14.5 8.2128 14.3437 8.36908C14.1874 8.52536 14.0996 8.73732 14.0996 8.95833V16.225L19.0163 19.5583C19.1068 19.6265 19.2104 19.6754 19.3205 19.7021C19.4306 19.7289 19.545 19.7329 19.6568 19.7139C19.7685 19.6949 19.8752 19.6534 19.9703 19.5918C20.0654 19.5301 20.1469 19.4498 20.2099 19.3556C20.2729 19.2614 20.316 19.1553 20.3366 19.0439C20.3572 18.9324 20.3549 18.818 20.3298 18.7074C20.3046 18.5969 20.2572 18.4927 20.1904 18.4012C20.1236 18.3096 20.0388 18.2327 19.9413 18.175L15.7663 15.3333Z" fill="currentColor"/>
<path d="M6.66643 14.9499C6.65881 13.4508 7.05818 11.9777 7.82196 10.6877C8.58574 9.39769 9.68529 8.33915 11.0034 7.62494C12.3215 6.91072 13.8087 6.56761 15.3064 6.63218C16.8042 6.69676 18.2564 7.16659 19.5081 7.9916L20.2164 6.85827C19.0275 6.07943 17.6807 5.5736 16.273 5.3771C14.8653 5.18059 13.4316 5.2983 12.0748 5.72177C10.718 6.14523 9.47182 6.86394 8.42579 7.82626C7.37977 8.78859 6.55985 9.97063 6.02496 11.2875C5.49006 12.6044 5.25346 14.0233 5.33214 15.4425C5.41083 16.8617 5.80285 18.2458 6.48005 19.4955C7.15725 20.7451 8.10281 21.8293 9.24881 22.6701C10.3948 23.5109 11.7128 24.0874 13.1081 24.3583L13.3331 23.0833C11.4564 22.7002 9.76898 21.6824 8.55477 20.201C7.34056 18.7197 6.6737 16.8653 6.66643 14.9499Z" fill="currentColor"/>
</g>
<defs>
<clipPath id="clip0_288_421">
<rect width="30" height="30" fill="currentColor"/>
</clipPath>
</defs>
</svg>
