<svg width="47" height="47" viewBox="0 0 47 47" fill="none" xmlns="http://www.w3.org/2000/svg">
<path d="M43.3608 23.2361C43.3608 34.3507 34.3507 43.3608 23.2361 43.3608C12.1215 43.3608 3.11133 34.3507 3.11133 23.2361C3.11133 12.1215 12.1215 3.11133 23.2361 3.11133C34.3507 3.11133 43.3608 12.1215 43.3608 23.2361ZM5.47368 23.2361C5.47368 33.046 13.4262 40.9985 23.2361 40.9985C33.046 40.9985 40.9985 33.046 40.9985 23.2361C40.9985 13.4262 33.046 5.47368 23.2361 5.47368C13.4262 5.47368 5.47368 13.4262 5.47368 23.2361Z" fill="#3E53AC"/>
<path d="M37.7257 23.2359C37.7257 31.2384 31.2384 37.7257 23.2359 37.7257C15.2334 37.7257 8.74609 31.2384 8.74609 23.2359C8.74609 15.2334 15.2334 8.74609 23.2359 8.74609C31.2384 8.74609 37.7257 15.2334 37.7257 23.2359ZM12.1712 23.2359C12.1712 29.3468 17.1251 34.3006 23.2359 34.3006C29.3468 34.3006 34.3006 29.3468 34.3006 23.2359C34.3006 17.1251 29.3468 12.1712 23.2359 12.1712C17.1251 12.1712 12.1712 17.1251 12.1712 23.2359Z" fill="#B6BEDF" fill-opacity="0.83"/>
<path fill-rule="evenodd" clip-rule="evenodd" d="M23.2376 0C24.9558 0 26.3487 1.39289 26.3487 3.11111V17.279C27.553 17.9182 28.5394 18.9136 29.1674 20.1248H43.3606C45.0788 20.1248 46.4717 21.5177 46.4717 23.2359C46.4717 24.9541 45.0788 26.347 43.3606 26.347H29.1384C28.5093 27.5332 27.5346 28.5081 26.3487 29.1375V43.3606C26.3487 45.0788 24.9558 46.4717 23.2376 46.4717C21.5193 46.4717 20.1264 45.0788 20.1264 43.3606V29.1683C18.914 28.54 17.9176 27.5527 17.2781 26.347H3.11111C1.39289 26.347 0 24.9541 0 23.2359C0 21.5177 1.39289 20.1248 3.11111 20.1248H17.2491C17.8872 18.894 18.8955 17.886 20.1264 17.2482V3.11111C20.1264 1.39289 21.5193 0 23.2376 0Z" fill="#3E53AC"/>
<ellipse cx="23.0249" cy="23.0249" rx="4.02495" ry="4.02495" fill="#B6BEDF" fill-opacity="0.83"/>
</svg>
