<svg width="30" height="30" viewBox="0 0 30 30" fill="none" xmlns="http://www.w3.org/2000/svg">
<path d="M11.8354 13.401H3.4002C2.6352 13.401 2.0127 12.7777 2.0127 12.0105V3.57598C2.0127 2.81098 2.6352 2.18848 3.4002 2.18848H11.8354C12.6004 2.18848 13.2229 2.81098 13.2229 3.57598V12.0112C13.2229 12.7777 12.6004 13.401 11.8354 13.401ZM3.4002 2.85298C3.20857 2.85318 3.02487 2.92944 2.88944 3.065C2.75402 3.20057 2.67795 3.38436 2.67795 3.57598V12.0112C2.67795 12.411 3.00195 12.7365 3.4002 12.7365H11.8354C12.0273 12.7359 12.2112 12.6592 12.3466 12.5232C12.482 12.3872 12.5579 12.2031 12.5577 12.0112V3.57598C12.5577 3.38436 12.4816 3.20057 12.3462 3.065C12.2108 2.92944 12.0271 2.85318 11.8354 2.85298H3.4002ZM26.6014 13.401H18.1639C17.7958 13.4002 17.4429 13.2533 17.1829 12.9926C16.9229 12.7319 16.777 12.3787 16.7772 12.0105V3.57598C16.7772 2.81098 17.3989 2.18848 18.1639 2.18848H26.6014C26.969 2.18907 27.3214 2.33552 27.5811 2.59566C27.8408 2.8558 27.9867 3.20838 27.9867 3.57598V12.0112C27.9867 12.379 27.8409 12.7318 27.5812 12.9923C27.3216 13.2528 26.9693 13.3998 26.6014 13.401ZM18.1639 2.85298C17.9723 2.85318 17.7886 2.92944 17.6532 3.065C17.5178 3.20057 17.4417 3.38436 17.4417 3.57598V12.0112C17.4417 12.411 17.7657 12.7365 18.1639 12.7365H26.6014C26.9914 12.7365 27.3214 12.4042 27.3214 12.0112V3.57598C27.3216 3.48123 27.3032 3.38737 27.2671 3.29976C27.231 3.21214 27.178 3.1325 27.1112 3.06536C27.0443 2.99822 26.9649 2.94491 26.8774 2.90847C26.79 2.87203 26.6962 2.85317 26.6014 2.85298H18.1639ZM11.8354 27.8122H3.4002C2.6352 27.8122 2.0127 27.1897 2.0127 26.4247V17.9872C2.0127 17.2215 2.6352 16.599 3.4002 16.599H11.8354C12.6004 16.599 13.2229 17.2215 13.2229 17.9872V26.424C13.2229 27.189 12.6004 27.8122 11.8354 27.8122ZM3.4002 17.2642C3.20863 17.2646 3.02504 17.341 2.88966 17.4765C2.75428 17.612 2.67814 17.7957 2.67795 17.9872V26.424C2.67795 26.823 3.00195 27.147 3.4002 27.147H11.8354C12.0271 27.1468 12.2108 27.0705 12.3462 26.935C12.4816 26.7994 12.5577 26.6156 12.5577 26.424V17.9872C12.5577 17.7956 12.4816 17.6118 12.3462 17.4763C12.2108 17.3407 12.0271 17.2644 11.8354 17.2642H3.4002ZM26.6014 27.8122H18.1639C17.3989 27.8122 16.7772 27.1897 16.7772 26.4247V17.9872C16.7772 17.2215 17.3989 16.599 18.1639 16.599H26.6014C27.3649 16.599 27.9867 17.2215 27.9867 17.9872V26.424C27.9865 26.7916 27.8406 27.1441 27.5809 27.4043C27.3213 27.6646 26.9691 27.8112 26.6014 27.8122ZM18.1639 17.2642C17.9724 17.2646 17.7888 17.341 17.6534 17.4765C17.518 17.612 17.4419 17.7957 17.4417 17.9872V26.424C17.4417 26.823 17.7657 27.147 18.1639 27.147H26.6014C26.9989 27.147 27.3214 26.823 27.3214 26.424V17.9872C27.3216 17.8925 27.3032 17.7986 27.2671 17.711C27.231 17.6234 27.178 17.5437 27.1112 17.4766C27.0443 17.4095 26.9649 17.3562 26.8774 17.3197C26.79 17.2833 26.6962 17.2644 26.6014 17.2642H18.1639Z" fill="currentColor"/>
</svg>
